<?xml version="1.0" standalone="no"?>
<!DOCTYPE svg PUBLIC "-//W3C//DTD SVG 20010904//EN"
 "http://www.w3.org/TR/2001/REC-SVG-20010904/DTD/svg10.dtd">
<svg version="1.0" xmlns="http://www.w3.org/2000/svg"
 width="793.000000pt" height="283.000000pt" viewBox="0 0 793.000000 283.000000"
 preserveAspectRatio="xMidYMid meet">

<g transform="translate(0.000000,283.000000) scale(0.100000,-0.100000)"
fill="#000000" stroke="none">
<path d="M930 2538 c-2 -232 -104 -438 -370 -743 -246 -282 -341 -455 -357
-645 l-6 -75 64 65 c35 36 62 69 61 75 -2 5 0 7 4 3 4 -4 24 6 46 23 91 73
221 119 337 120 127 0 245 -38 482 -156 161 -81 261 -119 358 -135 61 -10 75
-10 82 1 14 23 10 147 -7 212 -14 54 -58 157 -68 157 -2 0 -15 -17 -28 -38
-32 -47 -117 -132 -134 -132 -8 0 4 33 32 88 100 194 93 379 -19 548 -49 74
-85 119 -91 113 -2 -2 -13 -38 -25 -79 -29 -97 -77 -183 -137 -243 -43 -44
-109 -87 -133 -87 -5 0 13 34 41 76 100 152 138 264 138 409 0 101 -15 167
-54 246 -42 82 -127 187 -188 230 l-28 20 0 -53z"/>
<path d="M2080 1110 l0 -520 94 0 95 0 3 238 3 237 27 47 c35 58 82 88 150 94
74 7 135 -24 165 -86 21 -42 23 -60 25 -285 l3 -240 98 -3 97 -3 0 243 c0 309
-18 395 -99 475 -55 55 -115 77 -216 77 -102 1 -165 -21 -222 -76 l-33 -32 0
177 0 177 -95 0 -95 0 0 -520z"/>
<path d="M3880 1505 l0 -125 -75 0 -75 0 0 -85 0 -85 75 0 75 0 0 -210 c0
-185 2 -216 20 -263 48 -129 193 -186 359 -143 29 8 55 16 57 18 2 2 -9 41
-23 86 -22 65 -31 81 -43 75 -8 -3 -39 -9 -67 -11 -48 -3 -55 -1 -83 26 l-30
30 0 196 0 196 110 0 111 0 -3 83 -3 82 -107 3 -108 3 0 124 0 125 -95 0 -95
0 0 -125z"/>
<path d="M7570 1110 l0 -520 95 0 95 0 0 520 0 520 -95 0 -95 0 0 -520z"/>
<path d="M5985 1380 c-111 -35 -183 -101 -237 -217 -30 -63 -32 -75 -32 -173
1 -84 5 -117 23 -163 42 -108 121 -186 228 -227 72 -28 206 -37 286 -21 65 14
185 71 212 101 19 21 18 22 -42 82 l-61 61 -27 -21 c-46 -36 -119 -54 -204
-51 -98 5 -162 40 -198 109 l-24 45 83 2 c46 2 184 4 308 5 l225 3 0 95 c0
197 -82 320 -247 372 -80 24 -212 23 -293 -2z m260 -174 c52 -24 79 -54 91
-100 l6 -26 -211 0 c-116 0 -211 2 -211 5 0 15 31 63 57 87 63 60 181 75 268
34z"/>
<path d="M6890 1390 c-75 -16 -165 -67 -213 -120 -58 -64 -88 -143 -94 -250
-13 -200 62 -343 217 -417 45 -22 73 -28 151 -31 88 -4 102 -2 157 23 33 15
75 42 93 61 37 39 49 32 49 -28 l0 -38 90 0 90 0 0 395 0 395 -89 0 -88 0 -7
-50 -7 -51 -32 32 c-68 69 -204 102 -317 79z m208 -186 c47 -19 88 -58 115
-109 30 -56 30 -164 0 -221 -92 -174 -329 -171 -418 6 -13 24 -18 58 -18 106
0 61 4 79 30 125 24 42 42 60 83 82 61 32 147 37 208 11z"/>
<path d="M3205 1377 c-173 -57 -275 -205 -275 -397 0 -118 32 -201 108 -283
187 -199 545 -152 662 87 107 217 26 473 -180 570 -58 27 -77 31 -170 33 -67
2 -120 -2 -145 -10z m225 -182 c72 -37 119 -119 120 -205 0 -81 -16 -126 -63
-174 -67 -70 -156 -85 -244 -41 -143 71 -163 284 -38 393 19 18 48 34 63 38
15 3 32 7 37 9 17 7 99 -6 125 -20z"/>
<path d="M4711 1376 c-18 -6 -50 -26 -71 -44 -21 -18 -41 -32 -44 -32 -3 0 -6
17 -8 38 l-3 37 -93 3 -92 3 2 -393 3 -393 98 -3 97 -3 0 238 c0 210 3 243 19
278 59 128 210 142 279 26 l27 -46 3 -247 3 -248 94 0 93 0 4 238 c5 257 8
275 61 330 70 73 189 62 235 -22 14 -26 18 -71 22 -286 l5 -255 98 -3 97 -3 0
245 c0 143 -5 267 -11 298 -33 156 -133 243 -293 255 -107 8 -173 -14 -242
-81 l-55 -53 -14 26 c-35 68 -119 111 -215 110 -36 0 -80 -6 -99 -13z"/>
</g>
</svg>
